<?xml version="1.0" standalone="no"?>
<!DOCTYPE svg PUBLIC "-//W3C//DTD SVG 20010904//EN"
 "http://www.w3.org/TR/2001/REC-SVG-20010904/DTD/svg10.dtd">
<svg version="1.0" xmlns="http://www.w3.org/2000/svg"
 width="824.000000pt" height="824.000000pt" viewBox="0 0 824.000000 824.000000"
 preserveAspectRatio="xMidYMid meet">
<metadata>
Created by potrace 1.14, written by Peter Selinger 2001-2017
</metadata>
<g transform="translate(0.000000,824.000000) scale(0.100000,-0.100000)"
fill="#000000" stroke="none">
<path d="M4903 8225 c-78 -24 -146 -81 -248 -211 -16 -21 -47 -56 -67 -78 -21
-23 -38 -44 -38 -47 0 -4 -18 -25 -39 -48 -22 -23 -50 -55 -63 -72 -12 -17
-29 -37 -37 -45 -13 -14 -31 -36 -120 -143 -20 -24 -43 -51 -51 -61 -71 -83
-243 -287 -315 -375 -22 -27 -51 -60 -64 -74 -12 -14 -44 -52 -70 -83 -25 -32
-49 -58 -53 -58 -5 0 -8 -6 -8 -14 0 -8 -4 -16 -8 -18 -4 -1 -46 -48 -92 -103
-46 -55 -89 -105 -94 -111 -6 -7 -24 -29 -41 -49 -16 -21 -38 -47 -49 -59 -10
-11 -35 -41 -55 -66 -20 -25 -39 -47 -42 -50 -3 -3 -41 -48 -84 -100 -44 -52
-89 -106 -101 -120 -13 -14 -51 -59 -85 -100 -34 -41 -65 -77 -68 -80 -3 -3
-35 -41 -71 -85 -35 -44 -67 -82 -70 -85 -3 -3 -28 -32 -55 -65 -28 -33 -52
-62 -55 -65 -3 -3 -27 -32 -55 -65 -27 -33 -54 -65 -60 -71 -9 -10 -25 -30
-98 -117 -10 -12 -33 -40 -52 -62 -18 -22 -52 -62 -75 -90 -23 -27 -52 -61
-64 -75 -12 -14 -55 -65 -96 -115 -41 -49 -79 -95 -85 -101 -5 -6 -28 -33 -50
-60 -22 -26 -58 -69 -80 -95 -43 -49 -52 -60 -264 -314 -78 -93 -155 -185
-171 -203 -16 -18 -41 -58 -57 -90 -24 -49 -28 -69 -28 -142 1 -99 21 -153 81
-219 49 -55 97 -82 214 -121 52 -17 104 -35 115 -40 19 -8 89 -31 110 -36 6
-1 125 -41 265 -89 140 -48 262 -88 270 -91 16 -4 483 -163 488 -165 1 -1 5
-2 10 -3 19 -4 209 -70 223 -77 15 -8 15 -14 3 -66 -7 -32 -16 -71 -19 -88 -2
-16 -7 -41 -11 -55 -3 -14 -7 -32 -8 -40 -4 -25 -27 -124 -33 -140 -3 -8 -7
-24 -9 -35 -4 -32 -10 -60 -49 -235 -20 -91 -47 -219 -61 -285 -14 -66 -28
-127 -30 -135 -5 -23 -45 -202 -50 -228 -3 -13 -16 -76 -30 -140 -15 -64 -30
-135 -35 -157 -14 -66 -15 -73 -59 -270 -23 -104 -43 -199 -46 -210 -2 -11 -6
-31 -9 -45 -3 -14 -7 -34 -10 -45 -27 -128 -46 -216 -50 -227 -2 -7 -7 -31
-10 -53 -3 -22 -13 -67 -21 -100 -9 -33 -18 -71 -20 -85 -10 -53 -13 -67 -24
-115 -6 -27 -13 -59 -16 -70 -2 -11 -6 -31 -9 -45 -14 -64 -16 -77 -16 -111
-6 -220 225 -392 432 -324 86 28 130 64 256 211 86 100 224 256 243 274 3 3
50 57 105 120 55 63 102 117 105 120 4 4 107 120 185 209 17 18 35 39 40 45 6
6 42 47 80 91 39 44 75 85 80 91 6 6 35 39 65 74 30 35 62 70 71 79 8 9 44 49
80 90 35 41 78 89 94 107 17 17 49 53 72 80 48 56 83 96 121 139 15 16 60 68
101 115 41 47 79 90 85 96 6 6 36 39 66 74 30 35 60 68 65 74 23 26 154 174
181 205 16 18 38 43 49 55 23 25 124 140 152 172 77 89 130 150 143 163 9 9
43 47 75 85 33 38 69 79 80 91 11 11 49 54 85 95 36 41 75 85 88 98 12 12 22
25 22 28 0 2 12 17 28 32 28 29 129 143 178 202 16 19 40 46 54 60 14 15 42
47 63 71 45 52 141 160 177 199 14 16 45 51 70 80 25 29 54 62 65 74 45 49
132 153 147 177 27 43 50 136 47 192 -6 114 -76 225 -176 279 -42 22 -135 48
-238 64 -16 3 -46 9 -65 14 -19 5 -48 12 -65 15 -16 3 -73 14 -125 25 -52 11
-106 22 -120 25 -14 3 -36 8 -50 11 -14 3 -36 8 -50 10 -32 6 -219 44 -242 50
-25 6 -55 12 -113 24 -27 6 -61 13 -75 15 -14 3 -47 10 -75 16 -64 13 -85 18
-112 24 -36 8 -56 12 -93 19 -45 8 -60 11 -145 31 -76 17 -100 22 -128 24 -10
0 -16 4 -14 9 3 4 8 30 11 57 4 28 11 75 16 105 19 106 61 362 65 400 2 14 6
41 10 60 3 19 8 46 10 60 2 14 6 41 10 60 4 19 8 46 10 60 2 14 5 39 8 55 7
36 36 217 43 260 2 17 7 42 10 57 3 15 7 41 9 58 6 48 15 103 20 130 3 14 8
41 10 60 3 19 8 51 11 70 4 19 8 45 9 57 4 27 16 100 21 128 3 11 7 36 10 55
8 52 12 75 30 185 8 55 17 111 20 125 2 14 6 36 8 49 3 14 8 45 11 70 6 49 12
86 15 86 1 0 3 14 5 30 2 27 7 57 21 135 7 45 33 204 39 245 3 23 7 50 9 61
18 91 48 288 51 326 3 49 -11 126 -26 143 -5 5 -9 17 -9 26 0 28 -110 134
-164 158 -60 27 -172 35 -233 16z"/>
</g>
</svg>
