<?xml version="1.0" encoding="utf-8"?>
<!-- Generator: Adobe Illustrator 22.0.1, SVG Export Plug-In . SVG Version: 6.00 Build 0)  -->
<svg version="1.1" id="Calque_1" xmlns="http://www.w3.org/2000/svg" xmlns:xlink="http://www.w3.org/1999/xlink" x="0px" y="0px"
	 viewBox="0 0 796.9 263.7" style="enable-background:new 0 0 796.9 263.7;" xml:space="preserve">
<style type="text/css">
	.st0{fill:#FFFFFF;}
	.st1{fill:#CDD4EB;}
	.st2{fill:#F5AA2A;}
</style>
<g>
	<path class="st0" d="M214.8,124.2c-7.9-2.3-14.5-5.2-19.7-8.7c-1.4-0.9-1.9-2.6-1.2-4.1l7-15.6c0.8-1.8,3-2.5,4.7-1.4
		c4.6,2.9,9.9,5.3,15.8,7.3c7.3,2.4,14.6,3.5,22,3.5c8.1,0,14.2-1.2,18.1-3.6c3.9-2.4,5.8-5.6,5.8-9.7c0-2.9-1.2-5.4-3.5-7.4
		c-2.3-1.9-5.3-3.5-8.9-4.7c-3.6-1.2-8.5-2.5-14.6-3.9c-9.4-2.2-17.2-4.5-23.2-6.7c-6-2.2-11.2-5.8-15.5-10.8
		c-4.3-5-6.5-11.6-6.5-19.8c0-7.2,1.9-13.7,5.8-19.6c3.9-5.8,9.8-10.5,17.6-13.9c7.8-3.4,17.4-5.1,28.8-5.1c7.9,0,15.6,0.9,23.2,2.8
		c6.5,1.6,12.3,3.9,17.4,6.7c1.4,0.8,2,2.6,1.4,4.1L283,29.4c-0.7,1.8-2.8,2.6-4.5,1.7c-10.4-5.4-20.8-8-31.2-8
		c-8,0-14,1.3-17.8,3.9c-3.8,2.6-5.8,6-5.8,10.3c0,4.3,2.2,7.4,6.6,9.5c4.4,2.1,11.2,4.1,20.3,6.1c9.4,2.2,17.2,4.5,23.2,6.7
		c6,2.2,11.2,5.8,15.5,10.6c4.3,4.8,6.5,11.4,6.5,19.7c0,7.1-2,13.5-5.9,19.4c-4,5.8-9.9,10.5-17.8,13.9c-7.9,3.4-17.5,5.1-28.9,5.1
		C233.4,128.2,223.9,126.9,214.8,124.2"/>
	<path class="st0" d="M393.3,7.6c8.1,3.7,14.3,8.9,18.7,15.6c4.4,6.7,6.6,14.7,6.6,23.9c0,9.1-2.2,17-6.6,23.8
		c-4.4,6.8-10.6,12-18.7,15.6c-8.1,3.6-17.6,5.4-28.6,5.4H343c-1.8,0-3.3,1.5-3.3,3.3v27.6c0,1.8-1.5,3.3-3.3,3.3h-22.1
		c-1.8,0-3.3-1.5-3.3-3.3V5.4c0-1.8,1.5-3.3,3.3-3.3h50.4C375.6,2.1,385.2,4,393.3,7.6 M382.7,63c4.5-3.7,6.7-9,6.7-15.8
		c0-7-2.2-12.3-6.7-16c-4.5-3.7-11-5.6-19.7-5.6H343c-1.8,0-3.3,1.5-3.3,3.3v36.4c0,1.8,1.5,3.3,3.3,3.3h20.1
		C371.7,68.5,378.2,66.7,382.7,63"/>
	<path class="st0" d="M507.7,99.5h-53.1c-1.3,0-2.5,0.8-3,2l-9.3,22.5c-0.5,1.2-1.7,2-3,2H417c-2.4,0-4-2.5-3-4.6L466.3,4.1
		c0.5-1.2,1.7-2,3-2h24.1c1.3,0,2.5,0.8,3,2l52.5,117.4c1,2.2-0.6,4.6-3,4.6h-22.8c-1.3,0-2.5-0.8-3-2l-9.3-22.5
		C510.2,100.3,509,99.5,507.7,99.5 M499,73.2l-14.7-35.5c-1.1-2.7-5-2.7-6.1,0l-14.7,35.5c-0.9,2.2,0.7,4.6,3,4.6h29.4
		C498.3,77.7,499.9,75.4,499,73.2"/>
	<path class="st0" d="M640.2,126.1c-1.1,0-2.1-0.5-2.7-1.4l-22.9-33.1h-1.4h-21.7c-1.8,0-3.3,1.5-3.3,3.3v27.9
		c0,1.8-1.5,3.3-3.3,3.3h-22.1c-1.8,0-3.3-1.5-3.3-3.3V5.4c0-1.8,1.5-3.3,3.3-3.3h50.4c11,0,20.5,1.8,28.6,5.5
		c8.1,3.7,14.3,8.9,18.7,15.6c4.4,6.7,6.6,14.7,6.6,23.9c0,9.2-2.2,17.2-6.6,23.8c-3.8,5.7-8.9,10.3-15.5,13.7
		c-1.8,0.9-2.3,3.2-1.2,4.8l22,31.5c1.5,2.2,0,5.2-2.7,5.2H640.2z M631.2,31.1c-4.5-3.7-11-5.6-19.7-5.6h-20.1
		c-1.8,0-3.3,1.5-3.3,3.3v36.6c0,1.8,1.5,3.3,3.3,3.3h20.1c8.6,0,15.2-1.9,19.7-5.7c4.5-3.8,6.7-9.1,6.7-15.9
		C637.9,40.1,635.7,34.8,631.2,31.1"/>
	<path class="st0" d="M727.8,80.1l-13.1,13.7c-0.6,0.6-0.9,1.4-0.9,2.3v26.7c0,1.8-1.5,3.3-3.3,3.3h-21.9c-1.8,0-3.3-1.5-3.3-3.3
		V5.4c0-1.8,1.5-3.3,3.3-3.3h21.9c1.8,0,3.3,1.5,3.3,3.3v46.3c0,3,3.6,4.4,5.7,2.3l48.2-50.9c0.6-0.7,1.5-1,2.4-1h22.9
		c2.9,0,4.4,3.4,2.4,5.5l-44.3,47.6c-1.1,1.2-1.2,3-0.2,4.3l48.4,61.1c1.7,2.2,0.2,5.3-2.6,5.3h-25.1c-1,0-1.9-0.4-2.6-1.2
		l-36.3-44.6C731.5,78.7,729.2,78.7,727.8,80.1"/>
</g>
<g>
	<path class="st1" d="M316.4,141.5h4.2c2.5,0,4.5,2,4.5,4.5v103.7c0,2.5,2,4.5,4.5,4.5h60.5c2.5,0,4.5,2,4.5,4.5v2.4
		c0,2.5-2,4.5-4.5,4.5h-73.6c-2.5,0-4.5-2-4.5-4.5v-115C311.9,143.5,313.9,141.5,316.4,141.5"/>
	<path class="st1" d="M500.3,232.3H437c-1.8,0-3.4,1-4.1,2.6l-12.5,27.8c-0.7,1.6-2.3,2.6-4.1,2.6h-3.8c-3.3,0-5.4-3.4-4.1-6.3
		l52.6-115c0.7-1.6,2.3-2.6,4.1-2.6h7.2c1.8,0,3.3,1,4.1,2.6l52.6,115c1.4,3-0.8,6.3-4.1,6.3h-4c-1.8,0-3.4-1-4.1-2.6L504.3,235
		C503.6,233.3,502,232.3,500.3,232.3 M495.6,215.4l-22.9-51.2c-1.6-3.5-6.6-3.5-8.2,0l-22.9,51.2c-1.3,3,0.8,6.3,4.1,6.3h45.7
		C494.7,221.7,496.9,218.3,495.6,215.4"/>
	<path class="st1" d="M658.2,212c4.4,5.3,6.6,12,6.6,20.3c0,10.6-3.9,18.8-11.8,24.5c-7.9,5.7-19.5,8.6-34.8,8.6h-52.6
		c-2.5,0-4.5-2-4.5-4.5v-115c0-2.5,2-4.5,4.5-4.5h49c13.8,0,24.5,2.8,32.1,8.3c7.6,5.5,11.4,13.4,11.4,23.6c0,6.8-1.7,12.7-5,17.4
		c-1.6,2.3-3.5,4.3-5.7,6c-2.6,2.1-2.3,6.2,0.7,7.6C652.2,206.4,655.5,208.9,658.2,212 M574.3,156.7v36c0,2.5,2,4.5,4.5,4.5h35
		c10,0,17.8-1.9,23.2-5.8c5.4-3.8,8.1-9.4,8.1-16.7c0-7.3-2.7-12.9-8.1-16.7c-5.4-3.8-13.2-5.8-23.2-5.8h-35
		C576.4,152.3,574.3,154.3,574.3,156.7 M643.2,249c5.7-3.8,8.5-9.7,8.5-17.7c0-15.5-11.2-23.2-33.6-23.2h-39.3c-2.5,0-4.5,2-4.5,4.5
		v37.6c0,2.5,2,4.5,4.5,4.5h39.3C629.2,254.6,637.6,252.7,643.2,249"/>
</g>
<path class="st2" d="M148.2,133.9c-1.1-3.2-3.8-5.7-7.2-6.4l-46.1-9.7l13.9-86.1c0.7-4.3-1.6-8.5-5.5-10.3
	c-3.9-1.8-8.6-0.8-11.4,2.6L2.3,130.7c-2,2.4-2.8,5.7-1.9,8.8c0.9,3.1,3.2,5.5,6.2,6.5l44.7,15.2l-18,82.9
	c-0.9,4.3,1.1,8.6,5.1,10.6c1.4,0.7,2.9,1,4.3,1c2.7,0,5.3-1.1,7.2-3.3l96.4-109.3C148.5,140.7,149.3,137.1,148.2,133.9L148.2,133.9
	z"/>
</svg>
